<svg width="671" height="133" viewBox="0 0 671 133" fill="none" xmlns="http://www.w3.org/2000/svg">
<path d="M0 0C36.0852 0 65.3424 29.385 65.3424 65.6278C101.428 65.6278 130.685 95.0128 130.685 131.256H65.3424C29.2572 131.256 0 101.871 0 65.6278V0Z" fill="#112E40"/>
<path d="M73.5102 28.7072C73.5102 12.8584 86.3028 0 102.093 0C117.872 0 130.675 12.8485 130.675 28.7072C130.675 44.5559 117.882 57.4144 102.093 57.4144C86.3127 57.4144 73.5102 44.5659 73.5102 28.7072Z" fill="#112E40"/>
<path d="M196.513 125.893C196.513 122.893 198.176 121.563 199.927 120.161C200.027 120.082 200.126 120.002 200.225 119.922L200.243 119.908C202.093 118.418 203.937 116.932 203.937 113.772V21.6699C203.937 18.4733 202.256 17.1361 200.494 15.7343C200.405 15.6632 200.315 15.5915 200.225 15.5198L200.207 15.505C198.357 14.0148 196.513 12.5296 196.513 9.54913C196.513 6.37938 198.925 4.32601 202.27 4.32601H238.474C242.186 4.32601 244.419 6.37938 244.419 9.54913C244.419 12.5295 242.563 14.0247 240.707 15.5198C240.612 15.596 240.518 15.6716 240.424 15.7471C238.667 17.1533 236.995 18.4914 236.995 21.6699V111.918C236.995 116.583 240.151 119.563 244.974 119.563H261.499C272.267 119.563 277.278 109.865 280.99 101.851C283.779 95.7006 286.002 90.8463 290.269 90.8463C293.425 90.8463 295.47 93.2685 295.47 96.6276V124.039C295.47 128.515 292.87 131.126 288.235 131.126H202.28C198.935 131.126 196.523 129.073 196.523 125.903L196.513 125.893Z" fill="#112E40"/>
<path d="M415.575 107.811V46.2804H409.263C406.107 46.2804 404.063 44.0476 404.063 40.8778C404.063 37.2035 406.946 36.0662 411.114 34.4213L411.298 34.3489C421.51 30.8104 429.489 25.0291 434.69 15.5198C436.545 11.9813 438.213 9.73852 441.369 9.73852C444.525 9.73852 446.381 11.7919 446.381 14.9616V36.0335H465.316C468.472 36.0335 470.328 38.0869 470.328 41.2566C470.328 44.4264 468.472 46.2903 465.316 46.2903H446.381V106.884C446.381 112.476 449.725 116.025 454.548 116.025C457.516 116.025 459.56 114.909 461.416 113.782C463.272 112.855 464.939 112.108 466.239 112.108C468.651 112.108 470.328 114.161 470.328 116.583C470.328 122.923 458.627 132.99 442.292 132.99C425.956 132.99 415.555 122.923 415.555 107.821L415.575 107.811Z" fill="#112E40"/>
<path d="M484.451 52.8093V104.642L484.471 104.662C484.471 122.743 496.35 133 512.686 133C525.121 133 536.256 127.039 544.057 117.341C545.913 126.85 554.08 133 566.516 133C574.684 133 581.363 130.398 581.363 125.734C581.363 123.491 580.063 122.374 578.207 121.069C576.351 119.763 574.495 118.088 574.495 114.729V43.3199C574.495 38.8444 571.706 36.0435 567.25 36.0435H542.002C538.668 36.0435 536.623 38.2763 536.623 41.0772C536.623 44.0498 538.292 45.3565 539.955 46.6589L539.968 46.6691C541.824 47.9749 543.68 49.4601 543.68 52.8192V107.074C539.968 113.035 534.212 116.952 527.9 116.952C520.655 116.952 515.276 111.729 515.276 103.715V43.4894C515.276 39.0139 512.487 36.0335 508.22 36.0335H482.783C479.627 36.0335 477.583 38.2663 477.583 41.0672C477.583 44.0399 479.251 45.3466 480.915 46.649L480.928 46.6592C482.783 47.9649 484.451 49.4501 484.451 52.8093Z" fill="#112E40"/>
<path d="M586.553 110.234C586.553 103.525 590.642 99.2292 597.688 99.2292C606.045 99.2292 609.201 105.2 612.168 111.35C615.324 117.69 618.847 124.218 629.059 124.218C637.594 124.218 643.172 119.743 643.172 112.656C643.172 103.515 633.337 99.4186 620.892 94.7537C605.3 88.6035 588.399 81.7058 588.399 62.4979C588.399 44.7852 602.69 34.1596 629.238 34.1596C653.741 34.1596 666.554 43.4794 666.554 55.0421C666.554 61.1922 662.465 64.5513 656.342 64.5513C648.73 64.5513 645.385 59.3282 642.973 53.7363C640.562 48.1443 637.594 42.9212 628.861 42.9212C621.06 42.9212 616.237 46.8386 616.237 52.9887C616.237 62.1291 626.638 66.6047 638.696 71.449C653.92 77.5991 671 84.8756 671 103.894C671 122.913 655.22 132.98 628.117 132.98C603.98 132.98 586.533 123.66 586.533 110.234H586.553Z" fill="#112E40"/>
<path fill-rule="evenodd" clip-rule="evenodd" d="M303.687 83.5898C303.687 53.7562 323.556 34.1795 353.816 34.1795C383.887 34.1795 403.755 53.7562 403.755 83.5898C403.755 113.423 384.075 133 353.816 133C323.556 133 303.687 113.423 303.687 83.5898ZM335.197 83.5898C335.197 105.987 343.494 124.149 353.726 124.149C363.958 124.149 372.255 105.987 372.255 83.5898C372.255 61.1922 363.958 43.0309 353.726 43.0309C343.494 43.0309 335.197 61.1922 335.197 83.5898Z" fill="#112E40"/>
</svg>
